HIERARCHY
ROOT Hips
{
	OFFSET 0.00000 0.00000 0.00000
	CHANNELS 6 Xposition Yposition Zposition Yrotation Zrotation Xrotation 
	JOINT Lumbar
	{
		OFFSET 0 0 0
		CHANNELS 3 Zrotation Xrotation Yrotation
		JOINT Neck
		{
			OFFSET 0.00 0.2701 0.00
			CHANNELS 3 Zrotation Xrotation Yrotation
			End Site
			{
				OFFSET 0.00 0.1379 0.00
			}
		}
		JOINT RightShoulder
		{
			OFFSET 0.0119 0.2289 0.1181
			CHANNELS 3 Zrotation Xrotation Yrotation
			JOINT RightElbow
			{
				OFFSET 0.00 -0.1475 0.00
				CHANNELS 2 Zrotation Yrotation
				JOINT RightWrist
				{
					OFFSET 0.00 -0.1605 0.00
					CHANNELS 2 Zrotation Xrotation
					End Site
					{
						OFFSET 0.0040 -0.1068 0.0006
					}
				}
			}
		}
		JOINT LeftShoulder
		{
			OFFSET 0.0119 0.2289 -0.1181
			CHANNELS 3 Zrotation Xrotation Yrotation
			JOINT LeftElbow
			{
				OFFSET 0.00 -0.1475 0.00
				CHANNELS 2 Zrotation Yrotation
				JOINT LeftWrist
				{
					OFFSET 0.00 -0.1605 0.00
					CHANNELS 2 Zrotation Xrotation
					End Site
					{
						OFFSET 0.0040 -0.1068 -0.0006
					}
				}
			}
		}
	}
	JOINT RightHip
	{
		OFFSET 0.0316 -0.0424 0.0458
		CHANNELS 3 Zrotation Xrotation Yrotation
		JOINT RightKnee
		{
			OFFSET 0.00 -0.2438 0.00
			CHANNELS 1 Zrotation
			JOINT RightAnkle
			{
				OFFSET 0.00 -0.2449 0.00
				CHANNELS 3 Zrotation Xrotation Yrotation
				End Site
				{
					OFFSET 0.1237 -0.0542 0.0051
				}
			}
		}
	}
	JOINT LeftHip
	{
		OFFSET 0.0316 -0.0424 -0.0458
		CHANNELS 3 Zrotation Xrotation Yrotation
		JOINT LeftKnee
		{
			OFFSET 0.00 -0.2438 0.00
			CHANNELS 1 Zrotation
			JOINT LeftAnkle
			{
				OFFSET 0.00 -0.2449 0.00
				CHANNELS 3 Zrotation Xrotation Yrotation
				End Site
				{
					OFFSET 0.1237 -0.0542 -0.0051
				}
			}
		}
	}
}
MOTION
Frames: 25
Frame Time: 0.02
0.91964 0.42234 0.47971 892.46599 0 5.14095 -6.39438 -0.23728 -0.32473 -1.12818 -1.97842 -2.49813 15.11501 -7.74413 35.13763 131.39995 114.78278 -57.37405 -6.26829 24.02596 0.64763 -44.02934 44.38937 -119.16024 -40.31872 7.70621 67.33563 12.92624 0.42125 -71.81664 3.01348 1.2494 10.61627 86.42534 -12.67267 29.09765 -90.45527 -18.20951 1.66755 -5.31013
0.92041 0.42185 0.47953 892.54041 0 5.2567 -6.08648 -0.42913 -0.23874 -0.88123 -2.25358 -2.42848 14.53245 -7.78506 36.25886 131.66188 117.05298 -57.39946 -6.58561 23.97788 0.15348 -44.03493 43.35703 -119.46787 -38.81235 7.88746 67.49513 12.92322 0.59176 -71.89888 2.91675 1.23162 10.61695 86.54861 -12.67194 29.20171 -90.25431 -18.19735 1.67445 -5.19828
0.92125 0.42132 0.47932 892.63261 0 5.35061 -5.79552 -0.61511 -0.12148 -0.61208 -2.50731 -2.32195 13.87956 -7.9861 37.41722 132.11462 118.47289 -56.61842 -6.84507 23.73331 -0.23456 -44.06597 42.93616 -119.55779 -37.3266 8.04661 67.66003 12.91972 0.73525 -71.9702 2.8102 1.21271 10.61771 86.67278 -12.67134 29.32872 -90.03753 -18.17643 1.68543 -5.07511
0.92206 0.42081 0.47913 892.7181 0 5.4517 -5.49837 -0.80079 -0.01876 -0.34972 -2.76643 -2.23387 13.25853 -8.11435 38.51894 132.46389 120.32424 -56.18007 -7.14532 23.57534 -0.66363 -44.08134 42.24366 -119.75077 -35.86865 8.21328 67.82467 12.9166 0.89043 -72.04775 2.70457 1.19362 10.61844 86.80257 -12.67072 29.44278 -89.83194 -18.15946 1.69403 -4.9589
0.92286 0.4203 0.47892 892.79921 0 5.56589 -5.19548 -1.00057 0.08525 -0.09953 -3.04321 -2.13896 12.63818 -8.24306 39.7856 132.87957 121.98377 -55.82816 -7.38204 23.42306 -1.12554 -44.10754 41.52055 -119.91805 -34.24249 8.39062 67.98141 12.91279 1.05159 -72.121 2.6138 1.17739 10.61914 86.90627 -12.67004 29.56938 -89.60688 -18.14089 1.70499 -4.83919
0.92369 0.41978 0.47875 892.8922 0 5.6465 -4.90798 -1.16898 0.19434 0.18028 -3.27697 -2.04909 12.00159 -8.40864 40.71966 133.20444 123.8352 -55.11532 -7.73699 23.21405 -1.4935 -44.12011 41.00771 -120.08951 -32.97507 8.54042 68.15478 12.91028 1.19085 -72.19974 2.48962 1.15496 10.61992 87.06568 -12.66943 29.67379 -89.42129 -18.12597 1.71177 -4.71932
0.92457 0.41925 0.47873 893.02531 0 5.64621 -4.66321 -1.25213 0.30586 0.54054 -3.41487 -1.98616 11.31252 -8.6375 40.71256 133.22548 126.50231 -53.53685 -8.44828 22.90199 -1.62071 -44.0849 40.92825 -120.3362 -32.70667 8.6203 68.38009 12.91168 1.29757 -72.302 2.27814 1.11575 10.62093 87.36658 -12.66967 29.72143 -89.32724 -18.10112 1.70843 -4.64224
0.92547 0.41872 0.47875 893.16773 0 5.6116 -4.4326 -1.30363 0.42194 0.929 -3.50738 -1.92905 10.61351 -8.89762 40.37156 133.15045 129.37812 -51.63559 -9.27829 22.53994 -1.65817 -44.03718 41.03823 -120.59414 -32.79965 8.67304 68.62045 12.91437 1.37935 -72.40904 2.03323 1.07039 10.62202 87.72509 -12.66986 29.74415 -89.27704 -18.08378 1.70038 -4.55884
0.92634 0.4182 0.47875 893.29791 0 5.58823 -4.19243 -1.36955 0.53869 1.30149 -3.60929 -1.86638 9.93537 -9.14314 40.19356 133.12388 132.1094 -49.92792 -10.04403 22.1974 -1.74082 -43.99804 41.06214 -120.84122 -32.71779 8.73778 68.84903 12.91634 1.45785 -72.51009 1.80167 1.02777 10.62304 88.06592 -12.66964 29.77117 -89.22141 -18.07823 1.69282 -4.45037
0.92731 0.41763 0.47879 893.4617 0 5.58221 -3.96553 -1.43547 0.64563 1.68755 -3.75736 -1.81385 9.18701 -9.39652 39.97222 133.08286 135.02283 -47.9978 -10.8507 21.85944 -1.8004 -43.9455 41.11237 -121.10415 -32.67369 8.80335 69.09876 12.91887 1.59559 -72.62683 1.57644 0.98515 10.62419 88.3735 -12.67128 29.82764 -89.10595 -18.01056 1.69207 -4.45507
0.92807 0.41715 0.47874 893.55851 0 5.53257 -3.71478 -1.49355 0.77283 2.05241 -3.79935 -1.74318 8.58189 -9.6381 39.7577 133.04759 137.61476 -46.46012 -11.60175 21.50515 -1.88914 -43.92004 41.13835 -121.34042 -32.64596 8.86079 69.30782 12.92055 1.60628 -72.71226 1.33159 0.9413 10.6251 88.76075 -12.669 29.81786 -89.12332 -18.07121 1.67636 -4.22822
0.92826 0.41689 0.47838 893.45934 0 5.36748 -3.38949 -1.54093 0.96174 2.34615 -3.55513 -1.61173 8.38969 -9.84503 39.67654 133.04243 139.29508 -46.13301 -12.16369 21.09728 -2.07114 -43.95116 41.10537 -121.49419 -32.49294 8.90437 69.40196 12.91952 1.25638 -72.70935 1.02935 0.89383 10.62533 89.38137 -12.65629 29.62027 -89.51696 -18.50948 1.61719 -3.31724
0.92823 0.41672 0.47792 893.29424 0 5.16045 -3.04079 -1.58088 1.16921 2.61862 -3.20679 -1.46385 8.34022 -10.03704 39.60857 133.0467 140.64339 -46.20894 -12.66616 20.67925 -2.28748 -44.01353 41.02936 -121.62253 -32.35775 8.9403 69.45451 12.91762 0.78298 -72.67502 0.71088 0.84568 10.62532 90.07472 -12.63962 29.35906 -90.03868 -19.07165 1.54378 -2.18298
0.9283 0.4165 0.47753 893.16469 0 4.97488 -2.70594 -1.62223 1.36378 2.90435 -2.90893 -1.32967 8.21514 -10.23151 39.51141 133.05236 142.13083 -46.07074 -13.20161 20.28088 -2.49511 -44.07582 40.9329 -121.76831 -32.26992 8.97878 69.52525 12.91617 0.37613 -72.6555 0.40716 0.79895 10.62544 90.71722 -12.62444 29.13375 -90.4891 -19.56107 1.47901 -1.18028
0.92835 0.41628 0.47704 893.01091 0 4.77777 -2.35735 -1.67102 1.57828 3.17554 -2.59553 -1.16899 8.13233 -10.44584 39.49592 133.03272 143.67666 -46.04405 -13.71984 19.81844 -2.67185 -44.07932 41.00771 -121.89156 -31.96638 9.02088 69.59914 12.91453 -0.07732 -72.63362 0.07042 0.74722 10.62551 91.4383 -12.61034 28.87703 -90.99792 -20.1215 1.40473 -0.0469
0.9284 0.4161 0.47673 892.89306 0 4.59542 -2.03252 -1.70271 1.7545 3.47202 -2.29109 -1.06001 7.99893 -10.61431 39.32359 133.06688 145.01689 -45.89444 -14.25348 19.48606 -2.92048 -44.21127 40.71884 -122.053 -32.10437 9.05315 69.65685 12.91305 -0.4606 -72.60948 -0.20007 0.70596 10.62561 92.01044 -12.59335 28.67227 -91.41293 -20.56168 1.34719 0.86296
0.9285 0.41599 0.47696 892.87953 0 4.46219 -1.77127 -1.69154 1.83 3.83919 -2.0307 -1.09365 7.66152 -10.66421 38.66597 133.26807 145.89138 -45.22785 -14.88546 19.53054 -3.37532 -44.7031 39.38457 -122.3489 -33.51769 9.06755 69.67587 12.91224 -0.63852 -72.58354 -0.29124 0.69265 10.62577 92.16896 -12.56654 28.61533 -91.55509 -20.65447 1.33723 1.13879
0.9286 0.41591 0.47737 892.90617 0 4.34572 -1.53606 -1.66319 1.86466 4.23273 -1.78406 -1.18055 7.27364 -10.66771 37.8603 133.51995 146.56518 -44.43875 -15.5272 19.70389 -3.89883 -45.32014 37.69457 -122.68017 -35.36125 9.07131 69.6806 12.91159 -0.73846 -72.55688 -0.31374 0.69012 10.62597 92.17229 -12.53743 28.61499 -91.59531 -20.61958 1.34495 1.17593
0.92872 0.41582 0.47772 892.92198 0 4.2231 -1.29404 -1.64108 1.91153 4.6175 -1.53571 -1.24589 6.92842 -10.68906 37.15691 133.73511 147.31679 -43.76092 -16.13624 19.80825 -4.38073 -45.87232 36.20012 -122.97981 -36.96686 9.07496 69.6947 12.91082 -0.86112 -72.53275 -0.36237 0.68345 10.62617 92.23576 -12.51125 28.59632 -91.66995 -20.63269 1.34613 1.29622
0.92877 0.41573 0.478 892.90533 0 4.09311 -1.0303 -1.62498 1.98527 4.98992 -1.26552 -1.29986 6.50565 -10.72255 36.30831 134.00714 148.11515 -42.86772 -16.86061 19.95536 -4.90747 -46.46181 34.56064 -123.34276 -38.75407 9.0983 69.69578 12.9102 -1.03974 -72.4986 -0.43247 0.67364 10.62629 92.34408 -12.47713 28.54462 -91.79774 -20.69057 1.3409 1.52692
0.92895 0.41564 0.47846 892.9652 0 3.98261 -0.81793 -1.59282 1.99386 5.39214 -1.04422 -1.38993 6.2296 -10.72123 35.72395 134.17414 148.77069 -42.38189 -17.35036 20.04526 -5.35695 -46.99962 33.14003 -123.58444 -40.26288 9.07934 69.72045 12.90934 -1.08425 -72.48506 -0.44205 0.67282 10.62657 92.32316 -12.45886 28.5755 -91.79095 -20.62565 1.35293 1.47343
0.92949 0.41552 0.47943 893.23967 0 3.9255 -0.74442 -1.51675 1.82589 5.89137 -0.96571 -1.57052 6.37901 -10.62404 35.93108 134.02574 149.09993 -43.10951 -17.16792 19.93654 -5.5739 -47.39233 32.40479 -123.46651 -40.91444 8.93625 69.81958 12.90764 -0.75446 -72.53299 -0.29456 0.69518 10.62731 91.9654 -12.48684 28.82522 -91.41932 -20.23161 1.41241 0.64581
0.93014 0.41539 0.48058 893.58768 0 3.887 -0.7213 -1.42586 1.59491 6.41572 -0.93445 -1.78496 6.67569 -10.49558 36.40443 133.77219 149.29051 -44.23864 -16.75323 19.7677 -5.71097 -47.7234 31.90351 -123.22834 -41.26782 8.7528 69.94209 12.90572 -0.29595 -72.60103 -0.0896 0.72606 10.6282 91.48579 -12.53054 29.15559 -90.91841 -19.72162 1.488 -0.45203
0.93073 0.41527 0.48163 893.89369 0 3.83776 -0.67289 -1.34431 1.39711 6.91493 -0.87466 -1.98144 6.8989 -10.38881 36.73904 133.57532 149.53374 -45.14323 -16.45979 19.63221 -5.8861 -48.06384 31.29917 -123.05599 -41.74639 8.59442 70.05028 12.904 0.089 -72.6571 0.0846 0.75237 10.62899 91.07346 -12.5658 29.44626 -90.48807 -19.27817 1.55352 -1.39569
0.93139 0.41514 0.48279 894.23712 0 3.79858 -0.63505 -1.2512 1.17879 7.47341 -0.84475 -2.19064 7.14771 -10.24885 37.14338 133.34297 149.81336 -46.22044 -16.10109 19.47514 -6.05641 -48.48685 30.66824 -122.83807 -42.28301 8.40744 70.17346 12.90187 0.5397 -72.72497 0.28039 0.78191 10.62988 90.60593 -12.6064 29.75159 -90.00479 -18.77237 1.63104 -2.47907
